<svg xmlns="http://www.w3.org/2000/svg" width="960" height="520" viewBox="0 0 960 520" role="img" aria-labelledby="title desc">
  <title id="title">SWE-bench Verified comparison</title>
  <desc id="desc">Clew Code DeepSeek smoke resolved 1 of 1, compared with ClawCodex public full split results of 291 of 499 and OpenClaude 265 of 499.</desc>
  <defs>
    <style>
      .bg { fill: #0b1020; }
      .panel { fill: #111827; stroke: #263244; stroke-width: 1; }
      .muted { fill: #9ca3af; font: 500 17px system-ui, -apple-system, Segoe UI, sans-serif; }
      .small { fill: #cbd5e1; font: 500 14px system-ui, -apple-system, Segoe UI, sans-serif; }
      .label { fill: #f8fafc; font: 700 19px system-ui, -apple-system, Segoe UI, sans-serif; }
      .title { fill: #ffffff; font: 800 30px system-ui, -apple-system, Segoe UI, sans-serif; }
      .value { fill: #ffffff; font: 800 26px system-ui, -apple-system, Segoe UI, sans-serif; }
      .note { fill: #94a3b8; font: 500 13px system-ui, -apple-system, Segoe UI, sans-serif; }
      .axis { stroke: #334155; stroke-width: 1; }
      .grid { stroke: #1f2937; stroke-width: 1; }
    </style>
  </defs>

  <rect class="bg" width="960" height="520" rx="0"/>
  <text class="title" x="36" y="54">SWE-bench Verified: Clew Code Smoke vs ClawCodex Public Results</text>
  <text class="muted" x="36" y="84">Same benchmark harness shape: prediction JSONL, Docker apply/test, resolved grading.</text>

  <rect class="panel" x="36" y="118" width="888" height="270" rx="8"/>
  <line class="axis" x1="250" y1="340" x2="880" y2="340"/>
  <line class="grid" x1="250" y1="150" x2="250" y2="340"/>
  <line class="grid" x1="355" y1="150" x2="355" y2="340"/>
  <line class="grid" x1="460" y1="150" x2="460" y2="340"/>
  <line class="grid" x1="565" y1="150" x2="565" y2="340"/>
  <line class="grid" x1="670" y1="150" x2="670" y2="340"/>
  <line class="grid" x1="775" y1="150" x2="775" y2="340"/>
  <line class="grid" x1="880" y1="150" x2="880" y2="340"/>
  <text class="note" x="245" y="360">0%</text>
  <text class="note" x="344" y="360">10</text>
  <text class="note" x="449" y="360">20</text>
  <text class="note" x="554" y="360">30</text>
  <text class="note" x="659" y="360">40</text>
  <text class="note" x="764" y="360">50</text>
  <text class="note" x="866" y="360">60%</text>

  <text class="label" x="64" y="178">Clew Code + DeepSeek</text>
  <text class="small" x="64" y="201">local smoke, astropy__astropy-12907</text>
  <rect x="250" y="154" width="630" height="42" rx="4" fill="#10b981"/>
  <text class="value" x="806" y="184">1/1</text>
  <text class="small" x="806" y="208">100%</text>

  <text class="label" x="64" y="258">clawcodex</text>
  <text class="small" x="64" y="281">public ClawCodex README, full Verified split</text>
  <rect x="250" y="234" width="611" height="42" rx="4" fill="#2563eb"/>
  <text class="value" x="772" y="264">291/499</text>
  <text class="small" x="772" y="288">58.2%</text>

  <text class="label" x="64" y="318">openclaude</text>
  <text class="small" x="64" y="341">public ClawCodex README baseline</text>
  <rect x="250" y="294" width="557" height="42" rx="4" fill="#64748b"/>
  <text class="value" x="718" y="324">265/499</text>
  <text class="small" x="718" y="348">53.0%</text>

  <rect class="panel" x="36" y="414" width="888" height="70" rx="8"/>
  <text class="small" x="62" y="443">Clew Code result is a local smoke proof, not an official full-split score.</text>
  <text class="small" x="62" y="466">Harness verdict: patch applied cleanly; FAIL_TO_PASS 2/2; PASS_TO_PASS 13/13; resolved=true.</text>
</svg>
